<svg xmlns="http://www.w3.org/2000/svg" width="1200" height="630" viewBox="0 0 1200 630" role="img" aria-label="Shamma Marriage Invitation">
  <defs>
    <linearGradient id="bg" x1="0" y1="0" x2="1" y2="1">
      <stop offset="0%" stop-color="#0a2e1a" />
      <stop offset="100%" stop-color="#1a5c35" />
    </linearGradient>
    <linearGradient id="gold" x1="0" y1="0" x2="1" y2="1">
      <stop offset="0%" stop-color="#f2d57c" />
      <stop offset="100%" stop-color="#d4af37" />
    </linearGradient>
  </defs>
  <rect width="1200" height="630" fill="url(#bg)" />
  <circle cx="160" cy="120" r="260" fill="rgba(212,175,55,0.08)" />
  <circle cx="1050" cy="530" r="220" fill="rgba(212,175,55,0.07)" />
  <path d="M935 96a76 76 0 1 0 0 152 56 56 0 1 1 0-152Z" fill="url(#gold)" />
  <path d="m995 145 10 20 22 3-16 15 4 22-20-10-20 10 4-22-16-15 22-3Z" fill="url(#gold)" />
  <text x="110" y="190" fill="#d4af37" font-size="32" font-family="Georgia, serif" letter-spacing="6">ISLAMIC WEDDING INVITATION</text>
  <text x="110" y="300" fill="#ffffff" font-size="82" font-family="Georgia, serif">Shamma</text>
  <text x="110" y="390" fill="#d4af37" font-size="48" font-family="Georgia, serif">&amp; Md Danish Ansari</text>
  <text x="110" y="470" fill="#f6e6b3" font-size="32" font-family="Georgia, serif">20 April 2026 " Panki, Palamu, Jharkhand</text>
  <text x="110" y="535" fill="rgba(246,230,179,0.92)" font-size="26" font-family="Georgia, serif">Bismillah " Nikah Ceremony</text>
</svg>
